<svg viewBox="0 0 330 328" fill="none" xmlns="http://www.w3.org/2000/svg"><path d="M96.762 16.212C77.01 25.366 79.355 36.25 81.94 41.828l.583 1.258c2.546 5.494 9.453 14.57 29.204 5.416l1.803-.836c19.668-9.115 17.248-20.271 14.702-25.764l-.583-1.259c-2.585-5.577-9.458-14.363-29.084-5.267l-1.803.836zm21.063 10.054c1.672 3.607 1.749 9.379-8.735 14.237-10.568 4.898-14.897.944-16.549-2.62l-.233-.504c-1.652-3.564-1.903-9.052 8.833-14.027 10.567-4.898 14.76-1.237 16.412 2.327l.272.587zm28.453 10.971l10.799-1.158-2.797-26.103 14.752-1.581-.867-8.089-40.258 4.315.867 8.088 14.706-1.576 2.798 26.104zm52.88 2.705l13.8 2.641-16.826-22.232 22.384-11.716-13.438-2.572-19.989 10.762 2.694-14.073L177.205.728l-6.465 33.774 10.577 2.025 3.051-15.934 14.79 19.349z" fill="#C31E54"/><path d="M237.57 44.033c10.81 5.857 16.546 3.13 19.474-2.275l.22-.407c2.995-5.526 2.118-11.574-8.773-17.474L225.815 11.59l-16.382 30.235 9.469 5.13 5.461-10.078 13.207 7.155zm-6.008-20.444l13.045 7.068c3.048 1.65 3.773 3.515 2.65 5.588l-.066.122c-1.123 2.072-3.14 2.399-6.106.792L228.04 30.09l3.522-6.502zm38.279 28.285l7.93-6.94-7.093-8.104-25.877 22.648 15.89 18.155c9.437 10.782 15.594 9.816 20.463 5.555l.348-.305c4.799-4.2 6.512-10.245-2.833-20.922l-8.828-10.087zm-12.104 10.594l6.295-5.51 8.615 9.843c3.501 4 3.127 6.17 1.353 7.722l-.104.091c-1.704 1.492-4.044 1.696-7.544-2.303l-8.615-9.843zm49.53 16.168l-7.092-8.103-25.877 22.647 7.093 8.104 25.876-22.648zm-23.414 34.507l3.88 10.145 24.521-9.378 5.3 13.857 7.598-2.906-14.465-37.817-7.597 2.906 5.283 13.815-24.52 9.378zm34.018 32.235l10.536-.195-.199-10.768-34.382.636.446 24.123c.265 14.326 5.595 17.556 12.065 17.436l.462-.009c6.377-.118 11.582-3.635 11.32-17.822l-.248-13.401zm-16.082.297l8.364-.155.242 13.078c.099 5.315-1.586 6.733-3.942 6.776l-.139.003c-2.264.042-4.185-1.309-4.283-6.624l-.242-13.078zm27.447 44.287l-.2-10.767-34.381.636.199 10.767 34.382-.636z" fill="#C31E54"/><path d="M290.428 197.551l6.555 13.421-13.593 6.347-4.543 12.758 22.249-9.987 10.271 21.173 4.434-12.453-6.237-12.524 12.748-5.764 4.837-13.586-21.636 10.058-10.636-21.94-4.449 12.497zm-57.519 78.48l-27.636 10.934c-10.357 4.097-11.588 9.406-9.598 14.434l.238.602c2.227 5.63 7.643 5.625 10.056 5.316-1.36 1.085-4.255 4.07-2.606 8.239l.238.601c1.496 3.782 5.426 6.303 14.581 2.682l27.377-10.832-12.65-31.976zm-15.677 35.38c-2.794 1.105-3.958.174-4.485-1.159l-.034-.086c-.51-1.289-.333-2.85 2.461-3.956l15.644-6.189 2.058 5.201-15.644 6.189zm-5.604-11.651c-3.309 1.309-4.583-.026-5.127-1.401l-.068-.172c-.51-1.29-.597-3.393 2.712-4.702l16.504-6.529 2.483 6.275-16.504 6.529z" fill="#C31E54"/><path d="M167.266 307.019l13.016-.671-5.705 13.207-7.311-12.536zm-7.925-13.661l-11.586.598 20.143 33.394 13.939-.718 15.585-35.237-10.939.564-2.769 6.437-20.818 1.073-3.555-6.111z" fill="#C31E54"/><path d="M124.669 286.359l-13.585-3.588 15.252 23.341-23.139 10.143 13.228 3.493 20.685-9.357-3.659 13.854 10.412 2.749 8.781-33.247-10.412-2.75-4.143 15.685-13.42-20.323z" fill="#C31E54"/><path d="M83.183 280.657l10.94 7.085-12.363 7.357 1.423-14.442zm1.586-15.713l-9.738-6.306-3.252 38.863 11.717 7.587 33.279-19.417-9.194-5.954-6.017 3.593-17.496-11.331.701-7.035z" fill="#C31E54"/><path d="M78.91 261.668l-6.646-8.475-10.656 8.357-14.261-18.185 10.656-8.357-6.645-8.474-27.06 21.22 6.646 8.475 9.856-7.73 14.261 18.185-9.856 7.73 6.645 8.474 27.06-21.22zm-34.657-57.674c-6.246-18.624-16.449-18.81-20.568-17.429l-.482.162 3.63 10.824c.833.013 6.225-.625 9.767 9.935 3.19 9.51-1.027 13.8-4.883 15.093l-.526.177c-4.075 1.366-9.207.601-12.484-9.171-3.469-10.342.648-13.185 1.436-13.742l-3.63-10.824-.482.162c-3.812 1.279-11.855 7.242-5.52 26.129l.602 1.797c6.466 19.281 17.529 18.398 23.445 16.414l1.27-.426c5.785-1.94 15.361-8.417 9.027-27.304l-.602-1.797z" fill="#C31E54"/><path d="M37.561 151.578l.156-10.768-34.385-.496-.155 10.768 22.452 23.39-22.784-.328-.156 10.768 34.384.496.156-10.769-22.36-23.388 22.692.327z" fill="#C31E54"/><path d="M48.962 109.924l3.686-10.118-32.31-11.771-3.687 10.119 13.516 29.47-21.41-7.8-3.686 10.119 32.31 11.771 3.686-10.119-13.428-29.439 21.323 7.768zm-37.738-2.679c2.627-7.209-1.478-11.066-3.65-11.857l-.086-.031-2.658 7.295c.564.206 1.926 1.194 1.104 3.452-.855 2.346-2.517 2.183-3.082 1.977l-2.72 7.47.086.031c2.171.791 7.605 1 10.468-6.861l.538-1.476z" fill="#C31E54"/></svg>